<svg xmlns="http://www.w3.org/2000/svg" viewBox="0 0 48 48" fill="none">
  <!-- Hexagonal frame -->
  <path d="M24 2L43.5 13v22L24 46 4.5 35V13L24 2z" stroke="url(#g1)" stroke-width="1.8" fill="none"/>
  <!-- Inner circuit nodes -->
  <circle cx="24" cy="8" r="1.5" fill="#E04E16"/>
  <circle cx="37" cy="15.5" r="1.5" fill="#C44312"/>
  <circle cx="37" cy="32.5" r="1.5" fill="#E04E16"/>
  <circle cx="24" cy="40" r="1.5" fill="#C44312"/>
  <circle cx="11" cy="32.5" r="1.5" fill="#E04E16"/>
  <circle cx="11" cy="15.5" r="1.5" fill="#C44312"/>
  <!-- Connection lines -->
  <line x1="24" y1="8" x2="37" y2="15.5" stroke="#E04E16" stroke-width="0.6" opacity="0.3"/>
  <line x1="37" y1="15.5" x2="37" y2="32.5" stroke="#C44312" stroke-width="0.6" opacity="0.3"/>
  <line x1="11" y1="15.5" x2="11" y2="32.5" stroke="#C44312" stroke-width="0.6" opacity="0.3"/>
  <line x1="24" y1="8" x2="11" y2="15.5" stroke="#E04E16" stroke-width="0.6" opacity="0.3"/>
  <line x1="11" y1="15.5" x2="37" y2="32.5" stroke="#E04E16" stroke-width="0.4" opacity="0.2"/>
  <line x1="37" y1="15.5" x2="11" y2="32.5" stroke="#C44312" stroke-width="0.4" opacity="0.2"/>
  <!-- SP monogram -->
  <text x="13.5" y="30" font-family="Georgia,'Segoe UI',serif" font-size="18" font-weight="400" fill="url(#g1)" letter-spacing="-1">SP</text>
  <!-- Gradient defs -->
  <defs>
    <linearGradient id="g1" x1="0" y1="0" x2="48" y2="48">
      <stop offset="0%" stop-color="#E04E16"/>
      <stop offset="100%" stop-color="#C44312"/>
    </linearGradient>
  </defs>
</svg>
